HIERARCHY
ROOT Hips
{
	OFFSET 0.000000 83.214638 0.000000
	CHANNELS 6 Xposition Yposition Zposition Xrotation Yrotation Zrotation
	JOINT Pelvis
	{
		OFFSET 0.000000 0.000000 0.000000
		CHANNELS 3 Xrotation Yrotation Zrotation
		JOINT LeftUpLeg
		{
			OFFSET 8.479700 -4.795502 -0.379100
			CHANNELS 3 Xrotation Yrotation Zrotation
			JOINT LeftLeg
			{
				OFFSET 0.024144 -32.555107 0.112900
				CHANNELS 3 Xrotation Yrotation Zrotation
				JOINT LeftFoot
				{
					OFFSET -0.024144 -32.638630 -3.012600
					CHANNELS 3 Xrotation Yrotation Zrotation
					JOINT LeftToeBase
					{
						OFFSET 0.970200 -13.225400 11.864200
						CHANNELS 3 Xrotation Yrotation Zrotation
						End Site
						{
							OFFSET 0.000000 12.319262 0.000000
						}
					}
					JOINT LFootTongue
					{
						OFFSET 1.142400 -1.059800 6.665200
						CHANNELS 3 Xrotation Yrotation Zrotation
						End Site
						{
							OFFSET 0.000000 12.319262 0.000000
						}
					}
				}
				JOINT LeftPantLeg
				{
					OFFSET 0.918482 -16.533964 -2.284700
					CHANNELS 3 Xrotation Yrotation Zrotation
					End Site
					{
						OFFSET 0.350399 24.744368 0.000000
					}
				}
			}
		}
		JOINT RightUpLeg
		{
			OFFSET -8.479700 -4.795502 -0.379100
			CHANNELS 3 Xrotation Yrotation Zrotation
			JOINT RightLeg
			{
				OFFSET -0.023144 -32.555092 0.112900
				CHANNELS 3 Xrotation Yrotation Zrotation
				JOINT RightFoot
				{
					OFFSET 0.023144 -32.638641 -3.012700
					CHANNELS 3 Xrotation Yrotation Zrotation
					JOINT RightToeBase
					{
						OFFSET -0.970200 -13.225400 11.864200
						CHANNELS 3 Xrotation Yrotation Zrotation
						End Site
						{
							OFFSET 0.000000 12.319244 0.000000
						}
					}
					JOINT RFootTongue
					{
						OFFSET -1.142200 -1.059800 6.665200
						CHANNELS 3 Xrotation Yrotation Zrotation
						End Site
						{
							OFFSET 0.000000 12.319243 0.000000
						}
					}
				}
				JOINT RightPantLeg
				{
					OFFSET -0.919482 -16.533978 -2.284800
					CHANNELS 3 Xrotation Yrotation Zrotation
					End Site
					{
						OFFSET -0.350400 24.744419 0.000000
					}
				}
			}
		}
	}
	JOINT Spine
	{
		OFFSET 0.000000 7.722000 1.166200
		CHANNELS 3 Xrotation Yrotation Zrotation
		JOINT Spine1
		{
			OFFSET 0.000000 12.024101 0.248800
			CHANNELS 3 Xrotation Yrotation Zrotation
			JOINT Spine2
			{
				OFFSET 0.000000 11.502998 -0.491200
				CHANNELS 3 Xrotation Yrotation Zrotation
				JOINT Neck
				{
					OFFSET 0.000000 18.430702 -3.123100
					CHANNELS 3 Xrotation Yrotation Zrotation
					JOINT Head
					{
						OFFSET 0.000000 9.051102 1.034000
						CHANNELS 3 Xrotation Yrotation Zrotation
						JOINT HairB
						{
							OFFSET 0.208400 24.786102 24.822300
							CHANNELS 3 Xrotation Yrotation Zrotation
							End Site
							{
								OFFSET 0.000000 32.263779 0.000000
							}
						}
						JOINT HairA
						{
							OFFSET -7.081100 24.428299 23.196600
							CHANNELS 3 Xrotation Yrotation Zrotation
							End Site
							{
								OFFSET 0.000000 32.263779 0.000000
							}
						}
						JOINT Hat
						{
							OFFSET 16.728800 15.048294 -15.439601
							CHANNELS 3 Xrotation Yrotation Zrotation
							End Site
							{
								OFFSET 0.000000 32.263779 0.000000
							}
						}
					}
				}
				JOINT LeftShoulder
				{
					OFFSET 6.197800 13.665199 -4.064700
					CHANNELS 3 Xrotation Yrotation Zrotation
					JOINT LeftArm
					{
						OFFSET 7.778100 -0.187103 -1.709300
						CHANNELS 3 Xrotation Yrotation Zrotation
						JOINT LeftForeArm
						{
							OFFSET 22.049376 0.000000 0.000000
							CHANNELS 3 Xrotation Yrotation Zrotation
							JOINT LeftHand
							{
								OFFSET 23.009392 0.000000 0.000000
								CHANNELS 3 Xrotation Yrotation Zrotation
								JOINT LeftHandThumb1
								{
									OFFSET 3.507191 -2.063065 3.133727
									CHANNELS 3 Xrotation Yrotation Zrotation
									JOINT LeftHandThumb2
									{
										OFFSET 3.101337 -1.790558 1.790558
										CHANNELS 3 Xrotation Yrotation Zrotation
										JOINT LeftHandThumb3
										{
											OFFSET 3.058640 -1.765907 1.765906
											CHANNELS 3 Xrotation Yrotation Zrotation
											End Site
											{
												OFFSET -0.415260 3.926476 -0.049563
											}
										}
									}
								}
								JOINT LeftHandIndex1
								{
									OFFSET 11.334419 -0.901459 3.706815
									CHANNELS 3 Xrotation Yrotation Zrotation
									JOINT LeftHandIndex2
									{
										OFFSET 3.283112 0.000000 0.000000
										CHANNELS 3 Xrotation Yrotation Zrotation
										JOINT LeftHandIndex3
										{
											OFFSET 3.323853 0.000000 0.000000
											CHANNELS 3 Xrotation Yrotation Zrotation
											End Site
											{
												OFFSET -1.135597 3.097809 0.402452
											}
										}
									}
								}
								JOINT LeftHandMiddle1
								{
									OFFSET 11.335861 0.000000 0.000000
									CHANNELS 3 Xrotation Yrotation Zrotation
									JOINT LeftHandMiddle2
									{
										OFFSET 3.410492 0.000000 0.000000
										CHANNELS 3 Xrotation Yrotation Zrotation
										JOINT LeftHandMiddle3
										{
											OFFSET 3.312172 0.000000 0.000000
											CHANNELS 3 Xrotation Yrotation Zrotation
											End Site
											{
												OFFSET -1.150200 3.080154 0.400270
											}
										}
									}
								}
								JOINT LeftHandRing1
								{
									OFFSET 11.514786 -0.013176 -3.003090
									CHANNELS 3 Xrotation Yrotation Zrotation
									JOINT LeftHandRing2
									{
										OFFSET 3.053307 0.000000 0.000000
										CHANNELS 3 Xrotation Yrotation Zrotation
										JOINT LeftHandRing3
										{
											OFFSET 3.295807 0.000000 0.000000
											CHANNELS 3 Xrotation Yrotation Zrotation
											End Site
											{
												OFFSET -1.281006 3.013344 0.375733
											}
										}
									}
								}
								JOINT LeftHandPinky1
								{
									OFFSET 10.518692 -0.960396 -5.730441
									CHANNELS 3 Xrotation Yrotation Zrotation
									JOINT LeftHandPinky2
									{
										OFFSET 2.861649 0.000000 0.000000
										CHANNELS 3 Xrotation Yrotation Zrotation
										JOINT LeftHandPinky3
										{
											OFFSET 2.863380 0.000000 0.000000
											CHANNELS 3 Xrotation Yrotation Zrotation
											End Site
											{
												OFFSET -0.843597 2.711159 0.369971
											}
										}
									}
								}
							}
							JOINT LSleeve
							{
								OFFSET 6.676277 -0.344902 -1.011730
								CHANNELS 3 Xrotation Yrotation Zrotation
								End Site
								{
									OFFSET 0.000000 14.885353 0.000000
								}
							}
						}
					}
				}
				JOINT RightShoulder
				{
					OFFSET -6.197800 13.665199 -4.064700
					CHANNELS 3 Xrotation Yrotation Zrotation
					JOINT RightArm
					{
						OFFSET -7.778100 -0.187103 -1.709300
						CHANNELS 3 Xrotation Yrotation Zrotation
						JOINT RightForeArm
						{
							OFFSET -22.049376 0.000000 0.000000
							CHANNELS 3 Xrotation Yrotation Zrotation
							JOINT RightHand
							{
								OFFSET -23.009392 0.000000 0.000000
								CHANNELS 3 Xrotation Yrotation Zrotation
								JOINT RightHandThumb1
								{
									OFFSET -3.507191 -2.063065 3.133727
									CHANNELS 3 Xrotation Yrotation Zrotation
									JOINT RightHandThumb2
									{
										OFFSET -3.101337 -1.790558 1.790558
										CHANNELS 3 Xrotation Yrotation Zrotation
										JOINT RightHandThumb3
										{
											OFFSET -3.058640 -1.765907 1.765906
											CHANNELS 3 Xrotation Yrotation Zrotation
											End Site
											{
												OFFSET 0.415260 3.926476 -0.049563
											}
										}
									}
								}
								JOINT RightHandIndex1
								{
									OFFSET -11.334419 -0.901459 3.706815
									CHANNELS 3 Xrotation Yrotation Zrotation
									JOINT RightHandIndex2
									{
										OFFSET -3.283112 0.000000 0.000000
										CHANNELS 3 Xrotation Yrotation Zrotation
										JOINT RightHandIndex3
										{
											OFFSET -3.323853 0.000000 0.000000
											CHANNELS 3 Xrotation Yrotation Zrotation
											End Site
											{
												OFFSET 1.135597 3.097809 0.402452
											}
										}
									}
								}
								JOINT RightHandMiddle1
								{
									OFFSET -11.335861 0.000000 0.000000
									CHANNELS 3 Xrotation Yrotation Zrotation
									JOINT RightHandMiddle2
									{
										OFFSET -3.410492 0.000000 0.000000
										CHANNELS 3 Xrotation Yrotation Zrotation
										JOINT RightHandMiddle3
										{
											OFFSET -3.312172 0.000000 0.000000
											CHANNELS 3 Xrotation Yrotation Zrotation
											End Site
											{
												OFFSET 1.150200 3.080154 0.400270
											}
										}
									}
								}
								JOINT RightHandRing1
								{
									OFFSET -11.514786 -0.013176 -3.003090
									CHANNELS 3 Xrotation Yrotation Zrotation
									JOINT RightHandRing2
									{
										OFFSET -3.053307 0.000000 0.000000
										CHANNELS 3 Xrotation Yrotation Zrotation
										JOINT RightHandRing3
										{
											OFFSET -3.295807 0.000000 0.000000
											CHANNELS 3 Xrotation Yrotation Zrotation
											End Site
											{
												OFFSET 1.281006 3.013344 0.375733
											}
										}
									}
								}
								JOINT RightHandPinky1
								{
									OFFSET -10.518692 -0.960396 -5.730441
									CHANNELS 3 Xrotation Yrotation Zrotation
									JOINT RightHandPinky2
									{
										OFFSET -2.861649 0.000000 0.000000
										CHANNELS 3 Xrotation Yrotation Zrotation
										JOINT RightHandPinky3
										{
											OFFSET -2.863380 0.000000 0.000000
											CHANNELS 3 Xrotation Yrotation Zrotation
											End Site
											{
												OFFSET 0.843597 2.711159 0.369971
											}
										}
									}
								}
							}
							JOINT RSleeve
							{
								OFFSET -6.676277 -0.344902 -1.011730
								CHANNELS 3 Xrotation Yrotation Zrotation
								End Site
								{
									OFFSET 0.000000 14.885353 0.000000
								}
							}
						}
					}
				}
				JOINT Backpack
				{
					OFFSET 0.000000 -2.471497 36.677502
					CHANNELS 3 Xrotation Yrotation Zrotation
					End Site
					{
						OFFSET 0.000000 20.427315 0.000000
					}
				}
				JOINT Hood
				{
					OFFSET 0.000000 18.754097 -10.431000
					CHANNELS 3 Xrotation Yrotation Zrotation
					JOINT Hood1
					{
						OFFSET 0.000000 -5.011002 -7.685901
						CHANNELS 3 Xrotation Yrotation Zrotation
						End Site
						{
							OFFSET 0.000000 9.175140 0.000000
						}
					}
				}
				JOINT LHoodieString
				{
					OFFSET 5.250500 16.397697 3.089900
					CHANNELS 3 Xrotation Yrotation Zrotation
					JOINT LHoodieString1
					{
						OFFSET 0.257700 -6.364304 3.694600
						CHANNELS 3 Xrotation Yrotation Zrotation
						JOINT LHoodieString2
						{
							OFFSET 0.000000 -9.643799 2.679100
							CHANNELS 3 Xrotation Yrotation Zrotation
							End Site
							{
								OFFSET 0.000000 10.009018 0.000000
							}
						}
					}
				}
				JOINT RHoodieString
				{
					OFFSET -5.250500 16.397697 3.089900
					CHANNELS 3 Xrotation Yrotation Zrotation
					JOINT RHoodieString1
					{
						OFFSET -0.257700 -6.364304 3.694600
						CHANNELS 3 Xrotation Yrotation Zrotation
						JOINT RHoodieString2
						{
							OFFSET 0.000000 -9.643799 2.679100
							CHANNELS 3 Xrotation Yrotation Zrotation
							End Site
							{
								OFFSET 0.000000 10.009018 0.000000
							}
						}
					}
				}
			}
			JOINT LBackpack_Strap
			{
				OFFSET 15.223200 -7.719803 -6.610900
				CHANNELS 3 Xrotation Yrotation Zrotation
				End Site
				{
					OFFSET 0.000000 16.040596 0.000000
				}
			}
			JOINT RBackpack_Strap
			{
				OFFSET -15.223000 -7.719803 -6.610900
				CHANNELS 3 Xrotation Yrotation Zrotation
				End Site
				{
					OFFSET 0.000000 16.040596 0.000000
				}
			}
		}
	}
	JOINT BoyFacialAnim_Joint
	{
		OFFSET 1.000000 -82.208099 -1.550900
		CHANNELS 3 Xrotation Yrotation Zrotation
		End Site
		{
			OFFSET 0.000000 30.012791 0.000000
		}
	}
}
MOTION
Frames: 4
Frame Time: 0.016667
2.777463 69.273735 13.050804 0.268306 -30.142899 -2.486755 0.000000 -0.000000 0.000000 -45.868234 1.333652 20.282255 67.472645 1.108350 0.382799 -22.426103 -7.991418 -10.912697 0.000000 0.000002 -0.000000 0.000000 0.000002 -0.000000 0.000000 0.000000 -0.000000 -15.989037 -14.706108 -29.013462 51.569868 -7.156984 -7.633518 -11.543982 -8.367434 21.763324 -0.000001 0.000000 0.000001 -0.000001 0.000000 0.000001 -0.000004 0.000002 0.000001 11.988866 9.261040 -5.492354 2.723683 1.552888 -1.611383 2.746777 1.530466 -1.591250 -10.034646 9.444446 7.085843 -0.518326 7.859694 -1.080338 0.000000 -0.000000 -0.000000 0.000000 -0.000000 -0.000000 0.000000 -0.000000 -0.000000 0.920476 1.300386 -6.093181 -59.606405 1.454193 -47.058812 0.000093 -109.149790 0.000078 1.999412 -7.850094 -14.416089 -6.141202 -11.690802 -6.761663 9.914157 42.595505 3.409830 -0.000003 -0.000004 0.000001 0.255323 3.378234 -45.814327 5.654093 5.847765 -88.067455 0.000000 -0.000003 -0.000002 -0.461469 3.841604 -39.722679 6.450764 5.820352 -95.892898 0.000002 -0.000001 -0.000002 0.469735 4.966829 -39.799441 8.181031 5.368626 -113.503004 0.000000 0.000001 -0.000004 -3.762415 9.063689 -45.253821 5.342542 5.829019 -85.005311 0.000003 0.000001 0.000002 0.000000 -0.000002 -0.000000 2.590447 21.406216 -4.318642 -39.313476 17.241004 46.560406 0.000033 113.312470 -0.000041 -14.981742 10.510291 -8.958509 -7.341106 13.749663 7.412330 9.855779 -44.489093 -3.903273 -0.000002 0.000001 -0.000001 -0.124369 -2.384791 45.108857 4.500602 -4.654546 88.071164 -0.000003 -0.000004 0.000003 -0.761625 -2.932910 39.031096 5.133900 -4.632763 95.881683 0.000005 -0.000000 0.000003 0.154760 -4.068806 39.122664 6.509725 -4.273605 113.462870 -0.000003 0.000001 0.000001 -4.198877 -8.025512 44.637786 4.252924 -4.639647 85.014818 -0.000001 0.000001 -0.000001 -0.000000 -0.000002 -0.000001 0.000000 -0.000001 0.000000 0.000000 -0.000001 0.000000 0.000000 -0.000001 0.000000 0.000000 -0.000001 0.000000 0.000000 -0.000001 -0.000000 -0.000001 -0.000000 -0.000000 0.000000 -0.000001 0.000000 0.000000 -0.000001 -0.000000 -0.000001 -0.000000 -0.000000 0.000000 -0.000000 -0.000000 0.000000 -0.000000 -0.000000 0.000000 -0.000000 0.000000 
2.728339 69.111282 12.241766 -0.354811 -31.907027 -2.406847 0.000000 -0.000001 -0.000000 -45.446368 1.494528 21.127676 67.446718 1.643497 -0.081838 -21.981704 -7.789141 -11.303668 0.000000 0.000002 0.000000 0.000000 0.000002 0.000000 0.000001 -0.000001 0.000002 -16.633556 -14.203451 -29.401376 52.696429 -7.337504 -6.992590 -12.892899 -10.433841 22.640890 0.000000 0.000001 0.000001 0.000000 0.000001 0.000001 0.000003 -0.000000 -0.000001 12.029958 9.040079 -5.281245 2.734888 1.491814 -1.567837 2.758107 1.469814 -1.547380 -9.735268 9.809005 6.855224 -0.083818 9.175665 -1.658000 0.000001 0.000000 -0.000000 0.000001 0.000000 -0.000000 0.000001 0.000000 -0.000000 0.919438 1.163409 -5.967905 -60.124455 1.960626 -46.784166 0.000003 -108.853196 -0.000016 2.167996 -7.474098 -14.181524 -6.141202 -11.690799 -6.761669 9.914147 42.595501 3.409833 -0.000002 -0.000002 0.000001 0.255325 3.378234 -45.814327 5.654093 5.847766 -88.067455 -0.000001 0.000001 -0.000003 -0.461470 3.841606 -39.722676 6.450762 5.820354 -95.892892 0.000001 -0.000002 -0.000004 0.469730 4.966829 -39.799447 8.181033 5.368625 -113.503004 0.000002 0.000001 -0.000002 -3.762413 9.063696 -45.253818 5.342546 5.829018 -85.005311 -0.000001 -0.000001 0.000003 0.000002 -0.000003 -0.000002 2.580092 21.227866 -4.233257 -40.248857 17.716341 48.393902 0.000029 112.648240 -0.000033 -15.571928 11.037963 -9.454332 -7.341108 13.749665 7.412348 9.855791 -44.489096 -3.903282 0.000004 0.000001 -0.000003 -0.124365 -2.384793 45.108871 4.500595 -4.654548 88.071157 0.000000 -0.000001 0.000005 -0.761622 -2.932914 39.031102 5.133899 -4.632764 95.881690 0.000002 0.000001 0.000000 0.154760 -4.068809 39.122664 6.509727 -4.273608 113.462870 -0.000000 -0.000006 0.000001 -4.198875 -8.025512 44.637793 4.252923 -4.639646 85.014811 -0.000000 -0.000001 -0.000002 -0.000001 -0.000006 0.000001 -0.000001 0.000000 0.000000 -0.000001 0.000000 0.000000 -0.000001 0.000000 0.000000 -0.000001 0.000000 0.000000 -0.000001 0.000000 0.000001 -0.000001 -0.000002 0.000000 -0.000001 0.000000 0.000000 -0.000001 0.000000 0.000001 -0.000001 -0.000002 0.000000 0.000001 0.000001 -0.000000 0.000001 0.000001 -0.000000 0.000000 -0.000001 -0.000000 
2.645375 68.962944 11.388907 -0.895325 -33.469686 -2.272973 -0.000000 -0.000002 -0.000000 -45.121743 1.667833 21.914945 67.313850 2.098691 -0.512809 -21.409855 -7.633617 -11.620436 -0.000000 -0.000000 -0.000000 -0.000000 -0.000000 -0.000000 -0.000003 -0.000001 -0.000000 -17.058403 -13.735592 -29.220137 53.400321 -7.502660 -6.974874 -14.357401 -12.835829 23.670198 0.000001 0.000001 0.000001 0.000001 0.000001 0.000001 0.000000 -0.000000 -0.000001 12.028522 8.799766 -5.083350 2.734733 1.427243 -1.530578 2.757623 1.406163 -1.509497 -9.369960 10.141567 6.579430 0.350803 10.288566 -2.099688 0.000001 0.000000 -0.000000 0.000001 0.000000 -0.000000 0.000001 0.000000 -0.000000 0.848220 1.234093 -5.801386 -60.427387 2.491306 -46.713067 0.000102 -108.401010 0.000092 2.365841 -7.630693 -14.447788 -6.141202 -11.690799 -6.761668 9.914151 42.595498 3.409830 0.000003 0.000003 -0.000000 0.255323 3.378236 -45.814331 5.654092 5.847767 -88.067455 -0.000001 0.000002 -0.000005 -0.461472 3.841606 -39.722679 6.450761 5.820356 -95.892892 -0.000003 0.000000 -0.000003 0.469731 4.966829 -39.799444 8.181029 5.368626 -113.503004 -0.000000 0.000003 -0.000004 -3.762415 9.063699 -45.253818 5.342545 5.829018 -85.005311 0.000002 0.000001 -0.000002 0.000001 0.000004 0.000001 2.551276 20.915491 -4.132410 -41.238322 18.236696 50.341404 -0.000038 112.007746 0.000022 -15.687963 11.432324 -9.498044 -7.341104 13.749670 7.412341 9.855785 -44.489096 -3.903276 0.000000 0.000002 0.000001 -0.124367 -2.384787 45.108861 4.500598 -4.654548 88.071164 -0.000000 -0.000001 0.000002 -0.761625 -2.932912 39.031096 5.133902 -4.632764 95.881683 -0.000001 -0.000003 0.000003 0.154761 -4.068803 39.122668 6.509724 -4.273606 113.462870 -0.000001 -0.000004 -0.000000 -4.198875 -8.025507 44.637793 4.252924 -4.639644 85.014805 -0.000002 -0.000003 -0.000002 -0.000001 0.000003 -0.000004 0.000000 0.000002 -0.000000 0.000000 0.000002 -0.000000 0.000000 0.000002 -0.000000 0.000000 0.000002 -0.000000 0.000000 0.000002 -0.000000 -0.000002 0.000000 0.000001 0.000000 0.000002 -0.000000 0.000000 0.000002 -0.000000 -0.000002 0.000000 0.000001 0.000001 -0.000003 0.000000 0.000001 -0.000003 0.000000 -0.000000 -0.000002 -0.000000 
2.535033 68.828522 10.488232 -1.375727 -34.839040 -2.086096 0.000000 -0.000003 -0.000000 -44.870340 1.837001 22.619930 67.058060 2.490896 -0.899312 -20.700377 -7.524781 -11.883275 -0.000000 -0.000001 -0.000000 -0.000000 -0.000001 0.000000 0.000002 -0.000001 -0.000000 -17.483625 -13.321257 -28.962761 53.967182 -7.712309 -7.084525 -16.052171 -14.702165 24.423700 -0.000000 0.000000 0.000001 -0.000000 0.000000 0.000001 0.000001 -0.000002 -0.000002 12.013847 8.551133 -4.891850 2.730772 1.361152 -1.496503 2.753146 1.341174 -1.474810 -8.933131 10.442602 6.282899 0.750988 11.295833 -2.539360 0.000000 0.000000 -0.000000 0.000000 0.000000 -0.000000 0.000000 0.000000 -0.000000 0.768325 1.378895 -5.675011 -60.613933 2.997520 -46.738004 0.000280 -107.926558 0.000302 2.461862 -7.936555 -14.879214 -6.141203 -11.690799 -6.761667 9.914159 42.595501 3.409838 0.000001 0.000002 -0.000001 0.255321 3.378236 -45.814331 5.654090 5.847769 -88.067455 -0.000000 -0.000001 -0.000002 -0.461473 3.841602 -39.722679 6.450764 5.820356 -95.892892 0.000004 0.000001 -0.000001 0.469729 4.966829 -39.799447 8.181031 5.368623 -113.503004 0.000001 0.000000 -0.000000 -3.762417 9.063696 -45.253814 5.342544 5.829018 -85.005311 -0.000000 0.000000 0.000002 -0.000000 0.000001 -0.000001 2.521652 20.583216 -4.040479 -42.285397 18.731707 52.282130 0.000004 111.411320 -0.000006 -15.585588 11.755241 -9.399774 -7.341105 13.749666 7.412340 9.855786 -44.489096 -3.903281 -0.000001 0.000001 0.000001 -0.124370 -2.384791 45.108861 4.500598 -4.654547 88.071171 -0.000001 -0.000000 0.000004 -0.761624 -2.932915 39.031096 5.133904 -4.632764 95.881676 -0.000001 -0.000002 -0.000000 0.154760 -4.068809 39.122668 6.509727 -4.273605 113.462870 0.000001 -0.000004 -0.000000 -4.198877 -8.025512 44.637796 4.252926 -4.639645 85.014805 0.000002 0.000001 0.000000 -0.000001 -0.000000 0.000000 0.000003 -0.000002 0.000000 0.000003 -0.000002 0.000000 0.000003 -0.000002 0.000000 0.000003 -0.000002 0.000000 0.000003 -0.000002 0.000000 0.000002 -0.000002 0.000000 0.000003 -0.000002 0.000000 0.000003 -0.000002 0.000000 0.000002 -0.000002 0.000000 0.000000 -0.000002 -0.000000 0.000000 -0.000002 -0.000000 0.000000 -0.000003 -0.000000 
